#N canvas 121 131 640 320 10;
#X obj 11 239 outlet;
#X text 73 50 Process incoming OSC;
#X obj 113 104 print unfiltered;
#X obj 48 100 gate;
#X obj 45 37 inlet;
#X obj 71 75 dumpOSC 9003;
#X text 168 74 port: 9003;
#X obj 61 156 OSCroute /cameraRot /cameraView /cameraPOV;
#X obj 61 239 outlet;
#X obj 110 238 outlet;
#X text 79 136 Camera Parse;
#X text 236 218 Action on Model Parse;
#X obj 183 236 OSCroute /nodeSel /sysSel /NodeMultiSel;
#X obj 199 275 outlet;
#X obj 255 275 outlet;
#X obj 315 275 outlet;
#X text 17 257 Rotation-View-POV;
#X text 212 296 node - System - MultiNode;
#X text 336 45 OSC input with Parsing for defined Events on the OSC
based Event Bus;
#X obj 393 181 OSCroute /sonifTypeSel /sonifOn;
#X text 405 161 Sonification Control Events;
#X obj 441 236 outlet;
#X obj 505 237 outlet;
#X obj 565 238 outlet;
#X text 451 258 Type - ON/OFF - nonEventBus;
#X connect 3 0 2 0;
#X connect 4 0 3 0;
#X connect 5 0 3 1;
#X connect 5 0 7 0;
#X connect 7 0 0 0;
#X connect 7 1 8 0;
#X connect 7 2 9 0;
#X connect 7 3 12 0;
#X connect 12 0 13 0;
#X connect 12 1 14 0;
#X connect 12 2 15 0;
#X connect 19 0 21 0;
#X connect 19 1 22 0;
#X connect 19 2 23 0;
